#tb 0: 1/25
0,          0,          0,        1,   152064, 0x42a3d9ce
0,          1,          1,        1,   152064, 0xa95cc2ed
0,          2,          2,        1,   152064, 0xc48f8fdc
0,          3,          3,        1,   152064, 0x1584b7e8
0,          4,          4,        1,   152064, 0xd6f34b7e
0,          5,          5,        1,   152064, 0xbb196ee4
0,          6,          6,        1,   152064, 0xdfe79cbd
0,          7,          7,        1,   152064, 0x023799b7
0,          8,          8,        1,   152064, 0x156b1932
0,          9,          9,        1,   152064, 0x6dd14765
0,         10,         10,        1,   152064, 0xd2bd86b9
0,         11,         11,        1,   152064, 0xee62c71d
0,         12,         12,        1,   152064, 0x60667d48
0,         13,         13,        1,   152064, 0x09df084c
0,         14,         14,        1,   152064, 0xc1a0b8d7
0,         15,         15,        1,   152064, 0x55adc538
0,         16,         16,        1,   152064, 0xf6d28a14
0,         17,         17,        1,   152064, 0x1adab322
0,         18,         18,        1,   152064, 0xa6c796aa
0,         19,         19,        1,   152064, 0x60d8dc6a
0,         20,         20,        1,   152064, 0x20f9c609
0,         21,         21,        1,   152064, 0x299f4059
0,         22,         22,        1,   152064, 0x93eb0fea
0,         23,         23,        1,   152064, 0x76e7547e
0,         24,         24,        1,   152064, 0xc4b76f90
0,         25,         25,        1,   152064, 0x4b7a85ea
0,         26,         26,        1,   152064, 0x2e138df4
0,         27,         27,        1,   152064, 0x7df1a421
0,         28,         28,        1,   152064, 0x0e9a1a3e
0,         29,         29,        1,   152064, 0x56124293
0,         30,         30,        1,   152064, 0x1faee8f7
0,         31,         31,        1,   152064, 0x7f551572
0,         32,         32,        1,   152064, 0x8974cbf0
0,         33,         33,        1,   152064, 0x1c5dc5e9
0,         34,         34,        1,   152064, 0x2498eb5b
0,         35,         35,        1,   152064, 0x861ed634
0,         36,         36,        1,   152064, 0x0e62a433
0,         37,         37,        1,   152064, 0xf3648cc0
0,         38,         38,        1,   152064, 0x69bc344b
0,         39,         39,        1,   152064, 0x797eaafe
0,         40,         40,        1,   152064, 0x722fbff8
0,         41,         41,        1,   152064, 0xa8895582
0,         42,         42,        1,   152064, 0xde1bcffb
0,         43,         43,        1,   152064, 0xf558ed3f
0,         44,         44,        1,   152064, 0xa5173e0e
0,         45,         45,        1,   152064, 0x6872d018
0,         46,         46,        1,   152064, 0x6af6c55d
0,         47,         47,        1,   152064, 0x7c6b1f26
0,         48,         48,        1,   152064, 0xa8086db3
0,         49,         49,        1,   152064, 0x70b762e1
0,         50,         50,        1,   152064, 0x85b7eb76
0,         51,         51,        1,   152064, 0x3a4393f1
0,         52,         52,        1,   152064, 0xdabdda42
0,         53,         53,        1,   152064, 0xbb84b84c
0,         54,         54,        1,   152064, 0xabe880d8
0,         55,         55,        1,   152064, 0xe7303cc5
0,         56,         56,        1,   152064, 0xecdcc142
0,         57,         57,        1,   152064, 0x591118db
0,         58,         58,        1,   152064, 0x37a715c6
0,         59,         59,        1,   152064, 0x9106221e
0,         60,         60,        1,   152064, 0xb1821a2e
0,         61,         61,        1,   152064, 0x3adeccdb
0,         62,         62,        1,   152064, 0xd4ac64a8
0,         63,         63,        1,   152064, 0x8f34134f
0,         64,         64,        1,   152064, 0x1f3cf03d
0,         65,         65,        1,   152064, 0x7b5da3b0
0,         66,         66,        1,   152064, 0x23f69e68
0,         67,         67,        1,   152064, 0x67e62093
0,         68,         68,        1,   152064, 0xf226d12e
0,         69,         69,        1,   152064, 0x2eb08a1f
0,         70,         70,        1,   152064, 0x5bb70c54
0,         71,         71,        1,   152064, 0x2edb3578
0,         72,         72,        1,   152064, 0x9d0c1b30
0,         73,         73,        1,   152064, 0xd8266732
0,         74,         74,        1,   152064, 0xad67cd45
0,         75,         75,        1,   152064, 0x7a11d3cc
0,         76,         76,        1,   152064, 0xac534ec1
0,         77,         77,        1,   152064, 0x7ff6ba17
0,         78,         78,        1,   152064, 0xf9741b77
0,         79,         79,        1,   152064, 0x318d25fa
0,         80,         80,        1,   152064, 0xff4ae686
0,         81,         81,        1,   152064, 0x26a05ae2
0,         82,         82,        1,   152064, 0x95619a34
0,         83,         83,        1,   152064, 0xec2b1136
0,         84,         84,        1,   152064, 0xf93ebeca
0,         85,         85,        1,   152064, 0xd8237aaa
0,         86,         86,        1,   152064, 0x1c362a05
0,         87,         87,        1,   152064, 0x6fc74faa
0,         88,         88,        1,   152064, 0x875e5b67
0,         89,         89,        1,   152064, 0xc04093be
0,         90,         90,        1,   152064, 0x4c2340a1
0,         91,         91,        1,   152064, 0x7af99e63
0,         92,         92,        1,   152064, 0xf5b89a4e
0,         93,         93,        1,   152064, 0xb7759e48
0,         94,         94,        1,   152064, 0x61a15c06
0,         95,         95,        1,   152064, 0x91a5ae4c
0,         96,         96,        1,   152064, 0x6aedf226
0,         97,         97,        1,   152064, 0x870dbf36
0,         98,         98,        1,   152064, 0x814d04a3
0,         99,         99,        1,   152064, 0xd5a30892
